<svg width="263" height="188" viewBox="0 0 263 188" fill="none" xmlns="http://www.w3.org/2000/svg">
<g clip-path="url(#clip0)">
<path opacity="0.1" d="M258.513 126.391C252.42 138.959 240.05 147.362 227.23 152.904C209.971 160.368 190.965 163.328 172.22 162.076C168.935 161.858 165.66 161.508 162.395 161.028C151.055 159.374 139.999 156.155 129.544 151.462C126.527 150.103 123.57 148.62 120.675 147.012C115.839 144.331 111.206 141.301 106.812 137.945C105.707 137.101 104.617 136.236 103.542 135.35C102.797 134.735 102.059 134.107 101.309 133.497C99.7268 132.211 98.0988 130.989 96.2828 130.074C95.7349 129.797 95.1731 129.549 94.5998 129.331C88.8491 127.143 82.2179 127.969 76.2311 129.675C71.6773 130.972 67.2382 132.749 62.689 134.017C60.6655 134.599 58.6037 135.037 56.5187 135.329C51.8638 135.918 47.1366 135.503 42.6557 134.111L42.2727 133.992C41.6307 133.79 40.994 133.57 40.3627 133.33L39.9798 133.183C39.3684 132.947 38.7699 132.694 38.1844 132.424L37.8015 132.25C37.1901 131.965 36.5916 131.665 36.0061 131.349C35.7952 131.238 35.5865 131.119 35.3802 131.007C32.0492 129.146 29.0213 126.789 26.401 124.016C26.3254 123.94 26.2543 123.862 26.1718 123.786C25.8072 123.392 25.4495 122.991 25.1032 122.58C24.9748 122.429 24.8464 122.278 24.7203 122.122C24.3091 121.62 23.9124 121.107 23.5303 120.583C23.473 120.508 23.4179 120.43 23.3629 120.354C21.7972 118.188 20.4991 115.84 19.497 113.363C19.4649 113.287 19.4351 113.209 19.4076 113.133C19.1019 112.346 18.8229 111.546 18.5707 110.733C18.4675 110.393 18.3689 110.045 18.2818 109.705C18.252 109.605 18.2244 109.501 18.1992 109.401C16.9335 104.418 16.7891 99.2383 16.7891 94.0883C16.7891 93.4876 16.7891 92.8876 16.7891 92.2884C16.8257 83.9581 16.9542 75.4857 18.1832 67.2702C18.1832 67.2128 18.1992 67.1555 18.2084 67.1005C18.6197 64.3347 19.1792 61.593 19.8845 58.8872C20.6227 56.0481 21.566 53.2663 22.7071 50.5638C25.5343 43.9143 29.6455 37.8633 34.2108 32.2547C45.7098 18.1417 60.7905 6.29414 78.4415 1.8596C97.4614 -2.91658 118.6 1.66012 133.942 13.8746C138.62 17.5983 142.823 22.0076 148.076 24.8623C152.661 27.3479 158.029 28.3774 162.941 26.4215C166.999 24.805 169.641 24.0025 174.199 24.2478C183.636 24.7817 192.939 26.7303 201.797 30.0283C202.154 30.159 202.512 30.2943 202.868 30.4296C225.96 39.2642 245.81 56.8167 256.128 79.3723C256.401 79.9684 256.667 80.5692 256.924 81.1745C263.075 95.5443 265.3 112.386 258.513 126.391Z" fill="#FF6562"/>
<path opacity="0.1" d="M27.5838 170.363C38.7632 170.363 47.8259 168.907 47.8259 167.111C47.8259 165.316 38.7632 163.86 27.5838 163.86C16.4045 163.86 7.3418 165.316 7.3418 167.111C7.3418 168.907 16.4045 170.363 27.5838 170.363Z" fill="#FF6562"/>
<path opacity="0.1" d="M209.175 188C228.998 188 245.067 186.44 245.067 184.515C245.067 182.59 228.998 181.03 209.175 181.03C189.353 181.03 173.284 182.59 173.284 184.515C173.284 186.44 189.353 188 209.175 188Z" fill="#FF6562"/>
<path d="M241.671 24.7063H29.4942C27.9126 24.7063 26.6304 25.9885 26.6304 27.5702V145.278C26.6304 146.86 27.9126 148.142 29.4942 148.142H241.671C243.253 148.142 244.535 146.86 244.535 145.278V27.5702C244.535 25.9885 243.253 24.7063 241.671 24.7063Z" fill="url(#paint0_linear)"/>
<path d="M241.35 26.4421H29.8404C28.2588 26.4421 26.9766 27.7243 26.9766 29.306V144.868C26.9766 146.449 28.2588 147.731 29.8404 147.731H241.35C242.932 147.731 244.214 146.449 244.214 144.868V29.306C244.214 27.7243 242.932 26.4421 241.35 26.4421Z" fill="white"/>
<path d="M241.35 26.4421H29.8404C28.2588 26.4421 26.9766 27.7243 26.9766 29.306V144.868C26.9766 146.449 28.2588 147.731 29.8404 147.731H241.35C242.932 147.731 244.214 146.449 244.214 144.868V29.306C244.214 27.7243 242.932 26.4421 241.35 26.4421Z" fill="white"/>
<path opacity="0.04" d="M241.35 26.4421H29.8404C28.2588 26.4421 26.9766 27.7243 26.9766 29.306V144.868C26.9766 146.449 28.2588 147.731 29.8404 147.731H241.35C242.932 147.731 244.214 146.449 244.214 144.868V29.306C244.214 27.7243 242.932 26.4421 241.35 26.4421Z" fill="white"/>
<path d="M243.111 25.0503H28.0795C27.787 25.0503 27.5064 25.1665 27.2996 25.3733C27.0928 25.5802 26.9766 25.8607 26.9766 26.1532V30.8147H244.205V26.1532C244.205 25.8623 244.09 25.5831 243.885 25.3766C243.68 25.17 243.402 25.0527 243.111 25.0503Z" fill="#5A5773"/>
<path d="M31.3146 29.423C32.1378 29.423 32.805 28.7557 32.805 27.9326C32.805 27.1094 32.1378 26.4421 31.3146 26.4421C30.4915 26.4421 29.8242 27.1094 29.8242 27.9326C29.8242 28.7557 30.4915 29.423 31.3146 29.423Z" fill="white"/>
<path d="M35.3273 29.423C36.1504 29.423 36.8177 28.7557 36.8177 27.9326C36.8177 27.1094 36.1504 26.4421 35.3273 26.4421C34.5042 26.4421 33.8369 27.1094 33.8369 27.9326C33.8369 28.7557 34.5042 29.423 35.3273 29.423Z" fill="white"/>
<path d="M39.34 29.423C40.1631 29.423 40.8304 28.7557 40.8304 27.9326C40.8304 27.1094 40.1631 26.4421 39.34 26.4421C38.5169 26.4421 37.8496 27.1094 37.8496 27.9326C37.8496 28.7557 38.5169 29.423 39.34 29.423Z" fill="white"/>
<path opacity="0.2" d="M103.166 41.6558H44.8682V46.6039H103.166V41.6558Z" fill="#FF6562"/>
<path opacity="0.1" d="M226.322 61.4966H44.8682V137.613H226.322V61.4966Z" fill="#5A5773"/>
<path opacity="0.1" d="M151.111 66.4607H148.004V60.4257C148.004 53.6157 142.574 47.9545 135.764 47.8513C134.122 47.834 132.493 48.1419 130.97 48.7572C129.448 49.3725 128.062 50.2831 126.893 51.4364C125.724 52.5897 124.795 53.963 124.159 55.4771C123.523 56.9912 123.193 58.6161 123.188 60.2583V66.4607H120.088C118.718 66.465 117.405 67.0111 116.436 67.9798C115.467 68.9486 114.921 70.2613 114.917 71.6313V96.4455C114.921 97.8155 115.467 99.1282 116.436 100.097C117.405 101.066 118.718 101.612 120.088 101.616H151.111C152.481 101.612 153.793 101.066 154.762 100.097C155.73 99.128 156.276 97.8153 156.279 96.4455V71.6313C156.276 70.2615 155.73 68.9488 154.762 67.98C153.793 67.0112 152.481 66.465 151.111 66.4607ZM137.411 82.5915V91.479C137.414 91.9495 137.238 92.4037 136.918 92.7494C136.599 93.0951 136.16 93.3065 135.691 93.3408C135.446 93.3523 135.201 93.3139 134.971 93.2281C134.742 93.1422 134.532 93.0107 134.354 92.8413C134.177 92.672 134.035 92.4684 133.939 92.2429C133.842 92.0174 133.792 91.7747 133.792 91.5294V82.5869C132.954 82.1779 132.278 81.4966 131.876 80.6543C131.475 79.8119 131.37 78.8583 131.58 77.9489C131.79 77.0396 132.302 76.2283 133.032 75.6473C133.763 75.0663 134.668 74.75 135.602 74.75C136.535 74.75 137.441 75.0663 138.171 75.6473C138.901 76.2283 139.413 77.0396 139.623 77.9489C139.833 78.8583 139.729 79.8119 139.327 80.6543C138.925 81.4966 138.249 82.1779 137.411 82.5869V82.5915ZM144.39 66.4607H126.806V60.2583C126.806 57.9274 127.732 55.6919 129.38 54.0437C131.028 52.3955 133.264 51.4695 135.595 51.4695C137.926 51.4695 140.161 52.3955 141.809 54.0437C143.458 55.6919 144.383 57.9274 144.383 60.2583L144.39 66.4607Z" fill="black"/>
<path d="M151.111 66.0022H148.004V59.9672C148.004 53.1572 142.574 47.496 135.764 47.3928C134.122 47.3755 132.493 47.6834 130.97 48.2987C129.448 48.914 128.062 49.8246 126.893 50.9779C125.724 52.1312 124.795 53.5045 124.159 55.0186C123.523 56.5327 123.193 58.1576 123.188 59.7998V66.0022H120.088C118.718 66.0065 117.405 66.5526 116.436 67.5213C115.467 68.4901 114.921 69.8028 114.917 71.1728V95.9869C114.921 97.3569 115.467 98.6696 116.436 99.6384C117.405 100.607 118.718 101.153 120.088 101.157H151.111C152.481 101.153 153.793 100.607 154.762 99.6383C155.73 98.6694 156.276 97.3567 156.279 95.9869V71.1728C156.276 69.803 155.73 68.4903 154.762 67.5215C153.793 66.5527 152.481 66.0065 151.111 66.0022V66.0022ZM137.411 82.133V91.0204C137.414 91.491 137.238 91.9452 136.918 92.2909C136.599 92.6366 136.16 92.848 135.691 92.8823C135.446 92.8938 135.201 92.8554 134.971 92.7696C134.742 92.6837 134.532 92.5521 134.354 92.3828C134.177 92.2135 134.035 92.0099 133.939 91.7844C133.842 91.5589 133.792 91.3162 133.792 91.0709V82.1284C132.954 81.7194 132.278 81.0381 131.876 80.1957C131.475 79.3534 131.37 78.3998 131.58 77.4904C131.79 76.5811 132.302 75.7697 133.032 75.1888C133.763 74.6078 134.668 74.2915 135.602 74.2915C136.535 74.2915 137.441 74.6078 138.171 75.1888C138.901 75.7697 139.413 76.5811 139.623 77.4904C139.833 78.3998 139.729 79.3534 139.327 80.1957C138.925 81.0381 138.249 81.7194 137.411 82.1284V82.133ZM144.39 66.0022H126.806V59.7998C126.806 57.4689 127.732 55.2334 129.38 53.5852C131.028 51.937 133.264 51.011 135.595 51.011C137.926 51.011 140.161 51.937 141.809 53.5852C143.458 55.2334 144.383 57.4689 144.383 59.7998L144.39 66.0022Z" fill="#FF6562"/>
<path opacity="0.1" d="M226.322 54.1707H207.956V58.5066H226.322V54.1707Z" fill="#5A5773"/>
<path d="M232.572 185.565C232.451 184.957 232.244 184.37 231.958 183.82L229.206 179.711H229.222C229.222 179.711 228.789 177.647 229.222 176.634C229.655 175.621 227.677 173.128 227.677 173.128C227.677 173.128 227.436 172.502 228.064 171.732C228.692 170.961 227.677 168.705 227.677 168.705C227.677 168.705 227.195 163.993 227.147 163.273C227.099 162.553 226.711 158.563 226.711 158.563L225.794 150.105L224.162 127.687L224.132 127.267C224.334 127.169 224.441 127.107 224.441 127.107L224.116 114.711L224.398 114.456C226.86 112.228 232.54 107.069 232.483 106.956C232.425 106.844 231.795 98.3417 231.721 96.2139C231.658 94.7017 231.328 93.2127 230.745 91.8161C230.602 91.534 230.192 89.6745 230.022 88.888C229.976 88.6724 229.947 88.5372 229.947 88.5372C229.947 88.5372 228.282 85.3637 228.426 83.9215C228.571 82.4792 228.86 81.3992 225.31 80.8948C225.31 80.8948 222.33 80.45 220.555 79.237C219.505 78.5105 218.358 77.9361 217.147 77.5311C217.147 77.5311 216.152 75.6967 215.46 76.3181C215.167 75.6636 214.947 74.9783 214.806 74.2751L214.786 74.1467C216.1 73.2301 217.046 71.8762 217.455 70.3267C217.478 70.2395 217.496 70.1501 217.517 70.063C217.585 70.0863 217.657 70.0994 217.73 70.102C218.333 70.102 218.704 69.4301 219.268 69.2169C219.498 69.1275 219.78 69.1137 219.956 68.9326C220.015 68.8627 220.058 68.7818 220.084 68.6947C220.11 68.6076 220.118 68.5161 220.108 68.4258C220.113 68.3633 220.113 68.3003 220.108 68.2378C220.109 68.2157 220.109 68.1935 220.108 68.1713V68.1942C219.954 67.3596 219.307 66.619 219.379 65.7706C219.447 64.9727 220.149 64.271 220.092 63.4937C220.091 63.4323 220.085 63.3709 220.076 63.3103V63.3378C219.99 63.0343 219.833 62.7559 219.617 62.5261C219.37 62.1898 219.046 61.9177 218.672 61.7327C218.354 61.5929 217.984 61.5608 217.686 61.3934C216.81 60.9165 216.813 59.6737 216.292 58.8253C216.069 58.4711 215.753 58.1855 215.378 57.9997C215.003 57.814 214.584 57.7355 214.167 57.7728C213.515 57.8371 212.926 58.1833 212.282 58.2956C211.401 58.4516 210.505 58.1649 209.67 57.8371C208.836 57.5092 207.99 57.1492 207.093 57.1492C206.196 57.1492 205.227 57.6078 204.956 58.4539C204.812 58.9124 204.883 59.4054 204.773 59.8709C204.575 60.6918 203.855 61.2787 203.11 61.6869C202.652 61.9414 202.106 62.2326 201.964 62.7141C201.964 62.7004 201.964 62.6889 201.964 62.6774C201.953 62.7159 201.946 62.7549 201.941 62.7944C201.936 62.8455 201.936 62.8969 201.941 62.948C201.941 63.2782 202.115 63.5923 202.232 63.9064C202.45 64.5041 202.445 65.1602 202.218 65.7546C202.049 66.1902 201.76 66.5731 201.595 67.0065C201.517 67.2084 201.466 67.4196 201.443 67.6348V67.5981C201.437 67.6958 201.437 67.7938 201.443 67.8916C201.44 68.2264 201.519 68.5569 201.672 68.8546C201.778 69.0601 201.923 69.2425 202.1 69.391C202.277 69.5395 202.481 69.651 202.702 69.719C203.161 69.8245 203.447 69.3751 203.931 69.4897C204.018 69.5106 204.103 69.5374 204.186 69.57C204.202 69.6732 204.218 69.7764 204.236 69.8773C204.529 71.4204 205.351 72.8129 206.561 73.8142C206.561 73.8692 206.579 73.9243 206.586 73.9816C206.733 74.8958 206.796 75.8213 206.777 76.7469C206.777 76.7469 206.054 75.6898 205.064 77.7306C205.064 77.7306 202.48 79.221 201.588 79.3906C200.696 79.5603 197.529 80.6632 197.529 80.6632C197.051 81.0086 196.477 81.194 195.887 81.1929C194.899 81.1929 194.078 83.3551 194.197 84.5314C194.317 85.7077 194.126 86.5744 193.207 86.6226C192.287 86.6707 192.79 88.5349 192.797 88.567L192.712 88.9682C192.533 89.7891 192.143 91.5501 192.005 91.8252C191.422 93.222 191.091 94.7109 191.026 96.2231C190.955 98.3509 190.338 106.821 190.267 106.965C190.219 107.059 194.11 110.616 196.846 113.101L197.243 113.459L195.984 125.217C196.02 125.67 196.155 126.11 196.378 126.506C196.602 126.902 196.908 127.244 197.277 127.51C197.277 127.648 197.277 127.788 197.263 127.932C197.208 129.308 197.098 130.973 196.878 131.408C196.493 132.179 196.589 136.31 196.589 136.31C196.589 136.31 196.202 144.721 195.72 145.636C195.238 146.551 195.14 148.47 195.284 148.846C195.429 149.222 194.801 159.322 194.801 159.322L194.319 163.842C194.319 163.842 194.463 168.166 194.028 168.262C193.592 168.359 193.351 171.34 193.351 171.34C193.351 171.34 191.808 173.454 192.482 174.222C193.156 174.99 192.384 175.329 192.313 175.52C192.242 175.71 190.841 176.437 191.854 179.124C191.863 179.151 191.874 179.177 191.886 179.202C190.937 180.521 187.929 184.774 188.112 185.421C188.247 185.832 188.534 186.176 188.915 186.384C189.623 186.808 190.838 187.005 192.771 186.384C195.981 185.349 195.752 184.604 195.752 184.604C195.769 184.256 195.918 183.927 196.17 183.686C196.421 183.444 196.756 183.308 197.105 183.306C198.433 183.21 199.423 181.986 199.423 181.986L199.267 181.406L199.054 180.603C199.079 180.374 199.242 179.973 199.971 179.75C201.083 179.413 200.792 177.299 200.792 177.299C200.792 177.299 200.696 175.089 201.177 174.8C201.659 174.511 201.468 170.858 201.468 170.858C201.468 170.858 202 168.214 202.771 166.435C203.541 164.656 204.463 154.085 204.463 154.085C204.463 154.085 205.089 148.894 205.669 147.404C206.249 145.913 206.781 141.733 206.781 141.733C206.781 141.733 210.356 134.811 210.402 133.272C210.402 133.272 210.86 131.83 211.319 133.417C211.777 135.003 213.066 138.801 213.066 138.801L214.32 143.462L215.818 150.43L216.785 156.296C216.785 156.296 216.638 158.506 217.014 159.276C217.391 160.047 217.932 161.822 217.643 162.159C217.354 162.496 218.221 164.082 218.464 164.417C218.707 164.752 218.464 171.867 218.464 171.867C218.464 171.867 219.573 177.923 221.167 178.975C221.278 179.048 221.396 179.11 221.52 179.159C221.497 179.814 221.474 180.693 221.504 181.151C221.501 181.254 221.518 181.356 221.555 181.451C221.699 181.644 223.341 182.942 223.68 182.942C224.019 182.942 225.223 183.783 225.274 184.192C225.324 184.6 228.802 186.329 229.295 186.379C229.788 186.429 232.178 186.858 232.506 186.186C232.587 185.99 232.61 185.774 232.572 185.565ZM224.026 98.9562L224.274 99.1695C224.274 99.1695 224.528 101.153 224.71 101.747C224.891 102.341 224.673 103.496 224.673 103.496C224.69 103.928 224.776 104.353 224.927 104.757C225.143 105.191 224.492 106.133 224.492 106.133H223.912L223.731 98.7086L224.026 98.9562ZM206.777 76.7882V76.7446C206.772 76.7583 206.77 76.7744 206.77 76.7882H206.777ZM197.868 105.37C197.779 105.178 197.766 104.959 197.832 104.757C197.883 104.649 197.924 104.535 197.953 104.418C198.025 104.117 198.069 103.81 198.086 103.501C198.087 103.497 198.087 103.493 198.086 103.489C198.066 103.379 197.88 102.315 198.052 101.751C198.224 101.187 198.485 99.1741 198.485 99.1741L198.65 99.0342L199.033 98.7017C199.033 98.7017 199.033 98.5779 199.061 98.3738C199.141 100.116 199.205 102.043 199.102 102.139C198.909 102.329 198.208 104.202 198.378 104.276C198.433 104.301 198.357 105.051 198.228 106.06C198.084 105.843 197.964 105.612 197.868 105.37V105.37Z" fill="url(#paint1_linear)"/>
<path d="M216.35 78.6203V81.4727L210.499 84.4145C210.499 84.4145 204.688 80.8994 206.121 79.5007C207.039 78.6157 206.862 76.1852 206.614 74.5136C206.47 73.5414 206.303 72.8283 206.303 72.8283C206.303 72.8283 216.74 69.8475 215.162 72.1106C214.635 72.8673 214.594 73.8464 214.77 74.8163C215.128 76.74 216.35 78.6203 216.35 78.6203Z" fill="#C37098"/>
<path d="M200.32 106.514L199.566 115.805C199.566 115.805 198.435 114.78 196.972 113.445C194.26 110.971 190.408 107.433 190.454 107.339C190.525 107.195 191.141 98.7658 191.208 96.6471C191.271 95.1433 191.598 93.6623 192.176 92.2722C192.313 91.9971 192.701 90.2453 192.863 89.4267C192.918 89.1722 192.953 89.0071 192.953 89.0071L194.219 88.498C194.219 88.498 199.492 94.3817 199.492 94.4895C199.492 94.5973 199.132 99.1166 199.132 99.1166L198.759 99.4422L198.596 99.5821C198.596 99.5821 198.344 101.556 198.165 102.148C197.986 102.739 198.178 103.767 198.199 103.877C198.182 104.186 198.138 104.493 198.068 104.794C198.038 104.91 197.998 105.023 197.947 105.131C197.882 105.332 197.895 105.549 197.984 105.741C198.085 106.007 198.218 106.26 198.378 106.495L200.32 106.514Z" fill="#3F3D56"/>
<path d="M232.281 107.339C232.336 107.451 226.711 112.585 224.274 114.803L223.169 115.805L222.421 106.514H224.359C224.359 106.514 225.006 105.58 224.79 105.149C224.64 104.747 224.555 104.324 224.54 103.895C224.54 103.895 224.753 102.749 224.574 102.155C224.396 101.561 224.143 99.5889 224.143 99.5889L223.898 99.378L223.607 99.1235C223.607 99.1235 223.247 94.6041 223.247 94.4963C223.247 94.3886 228.521 88.5049 228.521 88.5049L229.777 89.007C229.777 89.007 229.805 89.1423 229.851 89.3579C230.02 90.1397 230.426 91.9901 230.566 92.2722C231.143 93.6622 231.471 95.1432 231.534 96.6471C231.593 98.7658 232.208 107.195 232.281 107.339Z" fill="#3F3D56"/>
<path d="M232.304 186.202C231.967 186.872 229.601 186.432 229.112 186.395C228.624 186.358 225.175 184.622 225.127 184.217C225.079 183.811 223.885 182.974 223.55 182.974C223.215 182.974 221.589 181.681 221.445 181.49C221.408 181.395 221.392 181.294 221.397 181.192C221.346 180.406 221.445 178.381 221.445 178.381L228.381 178.764L231.752 183.834C232.036 184.381 232.241 184.965 232.361 185.569C232.402 185.782 232.383 186.001 232.304 186.202V186.202Z" fill="#3F3D56"/>
<path opacity="0.1" d="M232.304 186.202C231.967 186.872 229.601 186.432 229.112 186.395C228.624 186.358 225.175 184.622 225.127 184.217C225.079 183.811 223.885 182.974 223.55 182.974C223.215 182.974 221.589 181.681 221.445 181.49C221.408 181.395 221.392 181.294 221.397 181.192C221.346 180.406 221.445 178.381 221.445 178.381L228.381 178.764L231.752 183.834C232.036 184.381 232.241 184.965 232.361 185.569C232.402 185.782 232.383 186.001 232.304 186.202V186.202Z" fill="black"/>
<path opacity="0.1" d="M232.304 186.202C231.967 186.872 229.6 186.432 229.112 186.395C228.624 186.358 225.175 184.623 225.127 184.217C225.079 183.811 223.884 182.974 223.549 182.974C223.215 182.974 221.589 181.681 221.444 181.49C221.408 181.396 221.391 181.294 221.396 181.192L223.643 182.614C223.643 182.614 225.079 183.531 225.462 184.075C225.845 184.618 228.862 185.748 229.112 185.771C229.298 185.79 231.279 185.409 232.361 185.57C232.402 185.782 232.382 186.001 232.304 186.202V186.202Z" fill="black"/>
<path d="M199.515 182.018C199.515 182.018 198.533 183.238 197.222 183.332C196.876 183.334 196.544 183.47 196.295 183.71C196.046 183.95 195.898 184.277 195.883 184.623C195.883 184.623 196.112 185.365 192.941 186.395C191.026 187.012 189.823 186.817 189.121 186.395C188.744 186.187 188.46 185.845 188.325 185.437C188.11 184.673 192.343 178.86 192.343 178.86L196.195 178.631L198.946 179.874L199.368 181.449L199.515 182.018Z" fill="#3F3D56"/>
<path opacity="0.1" d="M199.515 182.018C199.515 182.018 198.533 183.238 197.222 183.332C196.876 183.334 196.544 183.47 196.295 183.71C196.046 183.95 195.898 184.277 195.883 184.623C195.883 184.623 196.112 185.365 192.941 186.395C191.026 187.012 189.823 186.817 189.121 186.395C188.744 186.187 188.46 185.845 188.325 185.437C188.11 184.673 192.343 178.86 192.343 178.86L196.195 178.631L198.946 179.874L199.368 181.449L199.515 182.018Z" fill="black"/>
<path opacity="0.1" d="M199.515 182.018C199.515 182.018 198.534 183.238 197.223 183.332C196.876 183.334 196.545 183.47 196.295 183.71C196.046 183.95 195.899 184.277 195.883 184.623C195.883 184.623 196.113 185.365 192.942 186.395C191.027 187.012 189.823 186.817 189.122 186.395C190.926 186.207 194.914 185.067 195.313 184.673C195.792 184.194 196.39 182.878 196.796 182.855C197.078 182.836 198.511 181.974 199.371 181.44L199.515 182.018Z" fill="black"/>
<path d="M229.051 176.684C228.619 177.689 229.051 179.745 229.051 179.745C229.051 179.745 222.63 180.08 221.062 179.028C219.494 177.975 218.384 171.947 218.384 171.947C218.384 171.947 218.613 164.869 218.384 164.534C218.155 164.199 217.283 162.622 217.57 162.287C217.856 161.952 217.341 160.182 216.948 159.416C216.556 158.65 216.719 156.452 216.719 156.452L215.761 150.614L214.279 143.68L213.021 139.039C213.021 139.039 211.73 135.26 211.292 133.683C210.854 132.105 210.391 133.538 210.391 133.538C210.345 135.07 206.805 141.958 206.805 141.958C206.805 141.958 206.277 146.12 205.704 147.601C205.131 149.082 204.507 154.25 204.507 154.25C204.507 154.25 203.59 164.773 202.833 166.543C202.076 168.313 201.556 170.943 201.556 170.943C201.556 170.943 201.749 174.579 201.269 174.866C200.79 175.153 200.868 177.354 200.868 177.354C200.868 177.354 201.155 179.457 200.054 179.794C198.953 180.131 199.137 180.846 199.137 180.846C199.137 180.846 193.015 181.85 192.01 179.17C191.006 176.489 192.393 175.776 192.469 175.584C192.545 175.391 193.308 175.059 192.639 174.291C191.969 173.522 193.499 171.422 193.499 171.422C193.499 171.422 193.739 168.457 194.168 168.361C194.597 168.265 194.457 163.961 194.457 163.961L194.934 159.464C194.934 159.464 195.558 149.419 195.413 149.036C195.269 148.653 195.365 146.743 195.844 145.826C196.323 144.909 196.704 136.544 196.704 136.544C196.704 136.544 196.608 132.433 196.991 131.667C197.22 131.234 197.316 129.567 197.371 128.207C197.413 127.168 197.422 126.309 197.422 126.309L202.778 124.3L209.657 122.101L215.444 124.876L223.912 126.501L224.018 127.962L225.634 150.274L226.551 158.692C226.551 158.692 226.934 162.661 226.982 163.378C227.03 164.096 227.507 168.785 227.507 168.785C227.507 168.785 228.512 171.032 227.89 171.798C227.269 172.564 227.507 173.174 227.507 173.174C227.507 173.174 229.482 175.68 229.051 176.684Z" fill="#3F3D56"/>
<path opacity="0.1" d="M215.167 72.1103C214.639 72.867 214.598 73.846 214.774 74.8159C213.569 75.666 212.119 76.0966 210.645 76.0415C209.171 75.9864 207.757 75.4487 206.618 74.511V74.511C206.474 73.5388 206.307 72.8257 206.307 72.8257C206.307 72.8257 216.744 69.8495 215.167 72.1103Z" fill="black"/>
<path d="M217.607 69.1847C217.607 70.5134 217.213 71.8124 216.474 72.9172C215.736 74.022 214.687 74.8831 213.459 75.3916C212.232 75.9001 210.881 76.0331 209.578 75.7739C208.274 75.5147 207.077 74.8748 206.138 73.9352C205.198 72.9957 204.558 71.7986 204.299 70.4954C204.04 69.1921 204.173 67.8413 204.681 66.6137C205.19 65.3861 206.051 64.3368 207.156 63.5986C208.261 62.8604 209.559 62.4664 210.888 62.4664C211.772 62.4621 212.647 62.633 213.464 62.9691C214.281 63.3052 215.024 63.8 215.648 64.4247C216.273 65.0494 216.768 65.7917 217.104 66.6087C217.44 67.4257 217.611 68.3012 217.607 69.1847Z" fill="#C37098"/>
<path opacity="0.1" d="M219.005 80.3488L216.804 119.547L204.846 117.036L202.478 101.322L204.823 80.2273L206.589 80.4543L209.703 80.851L212.787 81.0413L216.13 80.6698L219.005 80.3488Z" fill="black"/>
<path d="M219.005 80.6356L216.804 119.833L204.846 117.323L202.478 101.609L204.823 80.5164L206.589 80.7411L209.703 81.1377L212.787 81.3281L216.13 80.9566L219.005 80.6356Z" fill="#FF6562"/>
<path d="M209.175 81.688L213.481 81.8324L212.271 83.5269C212.271 83.5269 212.356 86.9503 212.931 87.9316C213.507 88.913 213.337 104.074 213.337 104.074L212.191 106.25L210.23 103.81L210.255 83.7929L209.175 81.688Z" fill="#3F3D56"/>
<path opacity="0.1" d="M209.175 81.688L213.481 81.8324L212.271 83.5269C212.271 83.5269 212.356 86.9503 212.931 87.9316C213.507 88.913 213.337 104.074 213.337 104.074L212.191 106.25L210.23 103.81L210.255 83.7929L209.175 81.688Z" fill="black"/>
<path opacity="0.1" d="M215.919 77.24L211.902 81.6883L214.197 84.0798L218.001 80.3721L215.919 77.24Z" fill="black"/>
<path d="M215.919 76.9534L211.902 81.4017L214.197 83.7932L218.001 80.0855L215.919 76.9534Z" fill="#FF6562"/>
<path opacity="0.1" d="M210.205 81.4726L206.137 77.4072L205.754 79.5351L207.621 84.1989L210.205 81.4726Z" fill="black"/>
<path d="M210.347 81.186L206.282 77.1206L205.899 79.2484L207.765 83.9123L210.347 81.186Z" fill="#FF6562"/>
<path opacity="0.1" d="M224.038 127.969C222.086 128.899 219.995 129.504 217.847 129.759C213.901 130.262 211.319 125.24 211.319 125.24L209.813 127.201C209.333 129.283 202.04 129.808 199.075 129.019C198.46 128.867 197.881 128.593 197.374 128.214C197.415 127.175 197.424 126.315 197.424 126.315L202.78 124.307L209.659 122.108L215.446 124.882L223.914 126.508L224.038 127.969Z" fill="black"/>
<path opacity="0.1" d="M219.005 80.6379L216.806 119.833L204.846 117.323L202.473 101.611L204.816 80.5164L206.582 80.7457C206.536 81.5141 206.45 82.2795 206.322 83.0386C206.036 84.38 207.806 93.8979 207.806 93.8979C207.806 93.8979 211.17 104.572 212.683 103.033C214.196 101.494 216.352 93.3706 216.352 93.3706C217.812 90.3576 216.377 81.9059 216.269 81.7362C216.194 81.4863 216.148 81.2285 216.132 80.9681L219.005 80.6379Z" fill="black"/>
<path opacity="0.1" d="M224.171 110.969L224.272 114.809L223.167 115.811L222.421 106.514H224.072L224.171 110.969Z" fill="black"/>
<path opacity="0.1" d="M198.201 103.884C198.184 104.193 198.141 104.5 198.07 104.801C198.07 104.716 198.07 104.668 198.052 104.661C197.983 104.643 198.066 104.292 198.201 103.884Z" fill="black"/>
<path opacity="0.1" d="M200.32 106.514L199.566 115.805C199.566 115.805 198.435 114.78 196.972 113.445L197.146 111.799C197.146 111.799 197.763 107.754 197.988 105.759C198.09 106.025 198.222 106.278 198.382 106.514H200.32Z" fill="black"/>
<path d="M206.807 77.2626C206.807 77.2626 206.091 76.2101 205.11 78.2417C205.11 78.2417 202.551 79.7252 201.671 79.8926C200.79 80.06 197.658 81.1606 197.658 81.1606C197.185 81.5025 196.616 81.6863 196.032 81.6857C195.051 81.6857 194.237 83.8387 194.356 85.0104C194.475 86.1821 194.285 87.0443 193.377 87.0924C192.469 87.1406 192.969 89.0277 192.969 89.0277L199.02 95.9638C199.02 95.9638 199.403 102.35 199.212 102.542C199.022 102.735 198.327 104.606 198.495 104.67C198.662 104.734 197.578 111.797 197.578 111.797L196.119 125.501C196.119 125.501 196.119 127.794 199.086 128.585C202.053 129.376 209.352 128.854 209.822 126.772L211.328 124.809C211.328 124.809 213.91 129.833 217.856 129.331C221.802 128.828 224.316 127.393 224.316 127.393L223.884 110.969L223.598 99.1303L229.759 89.007C229.759 89.007 228.108 85.8496 228.252 84.4212C228.397 82.9927 228.681 81.9104 225.166 81.4082C225.166 81.4082 222.201 80.9657 220.454 79.7573C219.416 79.0364 218.281 78.4652 217.084 78.0605C217.084 78.0605 216.098 76.2262 215.412 76.8545C215.412 76.8545 216.1 79.4478 216.043 79.8353C215.985 80.2228 216.15 81.9746 216.258 82.1557C216.366 82.3369 217.801 90.7772 216.341 93.7901C216.341 93.7901 214.197 101.914 212.672 103.453C211.147 104.991 207.795 94.3175 207.795 94.3175C207.795 94.3175 206.025 84.7972 206.311 83.4581C206.598 82.119 206.807 77.2626 206.807 77.2626Z" fill="#3F3D56"/>
<path d="M211.925 108.619C212.506 108.619 212.977 108.147 212.977 107.566C212.977 106.985 212.506 106.514 211.925 106.514C211.343 106.514 210.872 106.985 210.872 107.566C210.872 108.147 211.343 108.619 211.925 108.619Z" fill="#3F3D56"/>
<path d="M211.925 113.581C212.506 113.581 212.977 113.109 212.977 112.528C212.977 111.947 212.506 111.476 211.925 111.476C211.343 111.476 210.872 111.947 210.872 112.528C210.872 113.109 211.343 113.581 211.925 113.581Z" fill="#3F3D56"/>
<path opacity="0.1" d="M211.925 108.619C212.506 108.619 212.977 108.147 212.977 107.566C212.977 106.985 212.506 106.514 211.925 106.514C211.343 106.514 210.872 106.985 210.872 107.566C210.872 108.147 211.343 108.619 211.925 108.619Z" fill="black"/>
<path opacity="0.1" d="M211.925 113.581C212.506 113.581 212.977 113.109 212.977 112.528C212.977 111.947 212.506 111.476 211.925 111.476C211.343 111.476 210.872 111.947 210.872 112.528C210.872 113.109 211.343 113.581 211.925 113.581Z" fill="black"/>
<path opacity="0.1" d="M221.383 175.249C221.383 175.249 225.703 175.584 226.132 175.919C226.56 176.253 221.383 175.249 221.383 175.249Z" fill="black" stroke="#FF6562" stroke-miterlimit="10"/>
<path opacity="0.1" d="M195.663 171.853C195.663 171.853 196.58 173 196.19 173.527C195.801 174.054 195.663 171.853 195.663 171.853Z" fill="black" stroke="#FF6562" stroke-miterlimit="10"/>
<path opacity="0.1" d="M196.764 175.987C196.764 175.987 198.438 174.887 199.107 175.618C199.777 176.349 196.764 175.987 196.764 175.987Z" fill="black" stroke="#FF6562" stroke-miterlimit="10"/>
<path opacity="0.1" d="M217.606 69.1847C217.608 69.758 217.535 70.329 217.391 70.8838C217.249 70.8193 217.131 70.7131 217.052 70.5796C216.972 70.446 216.935 70.2913 216.946 70.1363C216.976 69.8634 217.157 69.6135 217.118 69.3429C217.061 68.9256 216.556 68.7559 216.29 68.4257C215.962 68.0268 216.033 67.4467 216.061 66.9307C216.088 66.4148 215.958 65.7843 215.474 65.6077C215.329 65.555 215.171 65.5504 215.031 65.4908C214.651 65.3303 214.534 64.8579 214.279 64.5323C213.77 63.8766 212.759 63.8903 211.986 64.2022C211.65 64.3634 211.306 64.5073 210.955 64.6332C210.779 64.6952 210.592 64.7201 210.406 64.7063C210.22 64.6925 210.039 64.6403 209.875 64.553C209.723 64.4567 209.602 64.3237 209.446 64.2274C208.928 63.9155 208.249 64.2274 207.799 64.6286C207.35 65.0299 206.99 65.5687 206.424 65.8141C206.169 65.9287 205.855 65.9975 205.736 66.2452C205.677 66.38 205.652 66.5272 205.662 66.6739C205.662 67.5659 205.768 68.4716 205.582 69.3452C205.463 69.907 205.069 70.5444 204.498 70.4756C204.426 70.4651 204.357 70.4474 204.289 70.4229C204.117 69.5045 204.139 68.5604 204.352 67.6509C204.566 66.7414 204.967 65.8864 205.53 65.1406C206.092 64.3948 206.804 63.7745 207.62 63.3195C208.436 62.8644 209.338 62.5846 210.269 62.4978C211.199 62.411 212.137 62.5192 213.023 62.8155C213.909 63.1118 214.724 63.5896 215.415 64.2184C216.106 64.8473 216.658 65.6134 217.036 66.4677C217.414 67.322 217.61 68.2458 217.611 69.1801L217.606 69.1847Z" fill="black"/>
<path d="M203.988 70.0423C204.16 70.0812 204.323 70.1707 204.5 70.1936C205.071 70.2624 205.465 69.6249 205.584 69.0632C205.77 68.1896 205.674 67.2839 205.667 66.3919C205.654 66.2453 205.678 66.0978 205.738 65.9631C205.869 65.7155 206.183 65.6467 206.426 65.5321C206.981 65.2844 207.343 64.757 207.802 64.3466C208.26 63.9362 208.927 63.6335 209.446 63.9453C209.599 64.0371 209.723 64.1746 209.874 64.2709C210.04 64.357 210.221 64.4085 210.407 64.4223C210.593 64.4361 210.78 64.4119 210.957 64.3512C211.312 64.2457 211.645 64.06 211.986 63.9201C212.752 63.6083 213.765 63.5968 214.279 64.248C214.534 64.5759 214.651 65.046 215.031 65.2065C215.171 65.2661 215.329 65.273 215.474 65.3257C215.958 65.5068 216.081 66.1328 216.061 66.6487C216.04 67.1646 215.971 67.7447 216.29 68.1437C216.556 68.4693 217.06 68.639 217.118 69.0609C217.154 69.3314 216.976 69.5837 216.946 69.8542C216.939 69.9548 216.952 70.0557 216.985 70.1511C217.017 70.2465 217.068 70.3346 217.135 70.4101C217.202 70.4856 217.283 70.5471 217.374 70.591C217.464 70.6349 217.563 70.6604 217.663 70.6659C218.26 70.6659 218.629 69.9987 219.186 69.7854C219.415 69.696 219.693 69.6823 219.874 69.5011C219.941 69.4141 219.989 69.3134 220.013 69.2061C220.038 69.0988 220.039 68.9874 220.016 68.8797C219.904 68.0015 219.2 67.238 219.275 66.3575C219.346 65.5137 220.128 64.7777 219.963 63.9476C219.879 63.6416 219.722 63.3606 219.505 63.1291C219.259 62.7959 218.939 62.525 218.569 62.338C218.25 62.2004 217.881 62.1683 217.59 62.0009C216.723 61.5263 216.726 60.2881 216.214 59.4443C215.995 59.0956 215.684 58.814 215.315 58.6304C214.946 58.4468 214.534 58.3682 214.123 58.4033C213.479 58.4675 212.894 58.8092 212.257 58.9238C211.383 59.0797 210.498 58.7931 209.67 58.4652C208.843 58.1373 208.006 57.7773 207.118 57.7773C206.231 57.7773 205.27 58.2359 205 59.0751C204.857 59.5337 204.929 60.0244 204.818 60.4853C204.626 61.3039 203.901 61.8863 203.172 62.2921C202.67 62.5719 202.067 62.8929 202.007 63.4638C201.968 63.8261 202.168 64.1517 202.294 64.5025C202.508 65.096 202.504 65.7467 202.28 66.3369C202.113 66.7702 201.833 67.1509 201.663 67.5819C201.543 67.8745 201.486 68.1893 201.496 68.5055C201.507 68.8217 201.584 69.1322 201.723 69.4163C201.83 69.6234 201.978 69.8066 202.158 69.9544C202.338 70.1023 202.547 70.2118 202.771 70.2761C203.223 70.3839 203.507 69.9368 203.988 70.0423Z" fill="#3F3D56"/>
<g opacity="0.1">
<path opacity="0.1" d="M205.585 68.5634C205.465 69.1252 205.069 69.7626 204.498 69.6938C204.321 69.6709 204.161 69.5815 203.986 69.5425C203.507 69.437 203.223 69.8864 202.771 69.7718C202.547 69.7075 202.338 69.598 202.157 69.4502C201.977 69.3023 201.828 69.1192 201.721 68.9119C201.601 68.6786 201.529 68.4237 201.508 68.1622C201.462 68.5681 201.536 68.9786 201.721 69.343C201.828 69.5502 201.977 69.7334 202.157 69.8812C202.338 70.0291 202.547 70.1385 202.771 70.2029C203.23 70.3083 203.507 69.8589 203.986 69.9736C204.154 70.032 204.325 70.0817 204.498 70.1226C205.069 70.1937 205.465 69.5563 205.585 68.9945C205.679 68.4982 205.716 67.9927 205.695 67.488C205.692 67.8492 205.656 68.2093 205.585 68.5634V68.5634Z" fill="black"/>
<path opacity="0.1" d="M202.443 65.1104C202.473 64.7346 202.421 64.357 202.292 64.0029C202.188 63.7674 202.1 63.5254 202.028 63.2783C202.018 63.3168 202.011 63.3559 202.005 63.3953C201.966 63.7552 202.168 64.0831 202.292 64.434C202.372 64.6518 202.423 64.8792 202.443 65.1104V65.1104Z" fill="black"/>
<path opacity="0.1" d="M219.962 63.9019C219.854 64.5531 219.326 65.1653 219.274 65.8509C219.261 65.9682 219.261 66.0866 219.274 66.204C219.388 65.4037 220.097 64.6952 219.962 63.9019Z" fill="black"/>
<path opacity="0.1" d="M220 68.74C219.981 68.8359 219.936 68.9247 219.869 68.9968C219.7 69.1779 219.411 69.1917 219.182 69.2811C218.624 69.4944 218.264 70.1685 217.659 70.1616C217.504 70.1528 217.355 70.0973 217.233 70.0023C217.11 69.9074 217.019 69.7774 216.971 69.6296C216.957 69.6793 216.946 69.7299 216.939 69.781C216.933 69.8814 216.946 69.982 216.979 70.0772C217.011 70.1723 217.062 70.2601 217.129 70.3353C217.196 70.4106 217.277 70.4719 217.367 70.5157C217.458 70.5594 217.556 70.5848 217.657 70.5904C218.255 70.5904 218.622 69.9231 219.179 69.7122C219.409 69.6228 219.688 69.609 219.867 69.4279C219.934 69.3408 219.982 69.2401 220.007 69.1328C220.031 69.0255 220.032 68.9142 220.009 68.8065C220.007 68.779 220.002 68.7606 220 68.74Z" fill="black"/>
<path opacity="0.1" d="M217.125 68.5496C217.067 68.1323 216.563 67.9626 216.297 67.6325C216.134 67.4156 216.045 67.1517 216.045 66.8804C216.026 67.3069 216.033 67.7425 216.297 68.0635C216.561 68.3845 216.962 68.5221 217.09 68.8523C217.123 68.7549 217.134 68.6518 217.125 68.5496V68.5496Z" fill="black"/>
<path opacity="0.1" d="M216.059 66.149C216.077 65.633 215.953 65.0025 215.47 64.8259C215.327 64.7732 215.169 64.7663 215.029 64.709C214.649 64.5485 214.529 64.0761 214.277 63.7505C213.766 63.0971 212.755 63.1085 211.984 63.4204C211.64 63.5602 211.313 63.746 210.955 63.8514C210.779 63.9134 210.592 63.9383 210.406 63.9245C210.221 63.9107 210.04 63.8585 209.875 63.7712C209.724 63.6749 209.6 63.5419 209.446 63.4456C208.926 63.1337 208.247 63.4456 207.8 63.8468C207.353 64.2481 206.99 64.7847 206.424 65.0323C206.167 65.1469 205.855 65.2157 205.722 65.4634C205.664 65.5984 205.64 65.7456 205.651 65.8921C205.651 65.9816 205.651 66.071 205.651 66.1604C205.654 66.068 205.677 65.9774 205.718 65.8944C205.851 65.6468 206.163 65.578 206.419 65.4634C206.974 65.2157 207.337 64.6884 207.795 64.2779C208.254 63.8675 208.921 63.5648 209.441 63.8767C209.595 63.9684 209.719 64.106 209.87 64.2C210.035 64.2878 210.216 64.3403 210.402 64.3541C210.588 64.368 210.775 64.3428 210.95 64.2802C211.301 64.1555 211.644 64.0123 211.98 63.8514C212.748 63.5396 213.759 63.5258 214.273 64.1793C214.525 64.5049 214.644 64.9773 215.025 65.1378C215.165 65.1974 215.323 65.2043 215.465 65.257C215.857 65.4038 216.013 65.844 216.047 66.2797L216.059 66.149Z" fill="black"/>
</g>
<g opacity="0.1">
<path opacity="0.1" d="M204.766 68.5497C204.779 68.1691 204.915 67.8031 205.154 67.5066C205.393 67.2102 205.722 66.9993 206.091 66.9057C207.114 66.6557 208.186 66.7043 209.182 67.0456C211.358 67.7655 208.907 70.3565 208.907 70.3565C208.907 70.3565 207.277 71.9616 205.756 70.8404C205.307 70.501 204.993 70.0136 204.869 69.4646C204.795 69.1655 204.76 68.8579 204.766 68.5497V68.5497Z" fill="black"/>
<path opacity="0.1" d="M216.728 68.5496C216.715 68.1688 216.578 67.8025 216.339 67.506C216.099 67.2095 215.77 66.9988 215.4 66.9056C214.379 66.6561 213.307 66.7047 212.312 67.0455C210.136 67.7655 212.587 70.3565 212.587 70.3565C212.587 70.3565 214.215 71.9615 215.737 70.8403C216.186 70.5009 216.501 70.0135 216.625 69.4645C216.699 69.1654 216.734 68.8578 216.728 68.5496Z" fill="black"/>
<path opacity="0.1" d="M208.771 66.8346V66.9424H212.745V66.814L208.771 66.8346Z" fill="black"/>
<path opacity="0.1" d="M210.039 67.9832H210.165V67.6186C210.165 67.6186 210.569 67.3045 211.239 67.6186V67.9442H211.468V67.731H211.355C211.355 67.731 211.401 67.2885 210.654 67.3595C210.654 67.3595 210.053 67.3022 210.067 67.6828H209.929L210.039 67.9832Z" fill="black"/>
</g>
<path d="M204.766 68.4006C204.779 68.02 204.915 67.654 205.154 67.3575C205.393 67.061 205.722 66.8501 206.091 66.7565C207.114 66.5083 208.186 66.5568 209.182 66.8964C211.358 67.6187 208.907 70.2074 208.907 70.2074C208.907 70.2074 207.277 71.8125 205.756 70.6912C205.306 70.3527 204.992 69.8649 204.869 69.3154C204.794 69.0164 204.76 68.7087 204.766 68.4006V68.4006Z" fill="#FF6562"/>
<path d="M216.728 68.4006C216.715 68.0197 216.578 67.6535 216.339 67.357C216.1 67.0604 215.77 66.8497 215.401 66.7566C214.379 66.5082 213.307 66.5568 212.312 66.8964C210.136 67.6187 212.587 70.2074 212.587 70.2074C212.587 70.2074 214.215 71.8125 215.738 70.6912C216.188 70.3527 216.502 69.865 216.625 69.3155C216.7 69.0164 216.735 68.7088 216.728 68.4006Z" fill="#FF6562"/>
<path d="M208.771 66.6901V66.8001H212.745V66.6694L208.771 66.6901Z" fill="#FF6562"/>
<path d="M210.04 67.8387H210.166V67.4742C210.166 67.4742 210.569 67.1623 211.239 67.4742V67.802H211.468V67.5865H211.356C211.356 67.5865 211.402 67.1463 210.654 67.2151C210.654 67.2151 210.053 67.16 210.067 67.5384H209.93L210.04 67.8387Z" fill="#FF6562"/>
<path d="M28.235 104.831H26.9326V134.157H28.235V104.831Z" fill="#535461"/>
<path d="M36.4211 134.068L36.3386 135.389L36.2239 137.253L36.1758 138.03L36.0611 139.897L36.0107 140.674L35.8961 142.538L34.5822 163.741C34.5262 164.653 34.1242 165.51 33.4582 166.136C32.7923 166.763 31.9125 167.111 30.9983 167.111H24.17C23.256 167.111 22.3765 166.763 21.711 166.136C21.0454 165.51 20.6439 164.653 20.5884 163.741L19.2677 142.538L19.153 140.674L19.1049 139.897L18.9925 138.026L18.9444 137.248L18.8297 135.384L18.7472 134.063C18.7315 133.81 18.768 133.556 18.8542 133.317C18.9405 133.078 19.0748 132.859 19.2488 132.674C19.4228 132.49 19.6329 132.342 19.866 132.241C20.0992 132.141 20.3505 132.089 20.6045 132.089H34.5662C34.8204 132.089 35.072 132.141 35.3054 132.242C35.5388 132.343 35.7489 132.491 35.9228 132.676C36.0967 132.862 36.2307 133.081 36.3164 133.32C36.4021 133.56 36.4378 133.814 36.4211 134.068V134.068Z" fill="#3F3D56"/>
<path d="M36.3383 135.389L36.2237 137.253H18.9418L18.8271 135.389H36.3383Z" fill="#9D9CB5"/>
<path d="M36.1758 138.03L36.0611 139.896H19.1072L18.9902 138.03H36.1758Z" fill="#9D9CB5"/>
<path d="M36.0106 140.674L35.896 142.538H19.2722L19.1553 140.674H36.0106Z" fill="#9D9CB5"/>
<path d="M16.8395 115.823C24.4245 121.31 27.5842 129.895 27.5842 129.895C27.5842 129.895 18.4423 129.58 10.8458 124.093C3.24927 118.606 0.101074 110.022 0.101074 110.022C0.101074 110.022 9.25218 110.336 16.8395 115.823Z" fill="#FF6562"/>
<path d="M0.112305 110.022C0.112305 110.022 9.60047 115.295 12.6432 119.652C15.6859 124.009 27.584 129.897 27.584 129.897" stroke="#535461" stroke-width="2" stroke-miterlimit="10"/>
<path d="M21.7348 104.778C25.8621 107.759 27.5841 112.436 27.5841 112.436C27.5841 112.436 22.6084 112.267 18.4788 109.279C14.3492 106.291 12.6318 101.621 12.6318 101.621C12.6318 101.621 17.6075 101.779 21.7348 104.778Z" fill="#FF6562"/>
<path d="M12.6318 101.609C12.6318 101.609 17.7955 104.475 19.451 106.848C21.1065 109.222 27.5841 112.425 27.5841 112.425" stroke="#535461" stroke-width="2" stroke-miterlimit="10"/>
<path d="M33.5845 112.189C28.8404 117.401 27.8384 124.211 27.8384 124.211C27.8384 124.211 34.5246 122.571 39.2664 117.359C44.0082 112.148 45.0125 105.335 45.0125 105.335C45.0125 105.335 38.3263 106.975 33.5845 112.189Z" fill="#FF6562"/>
<path d="M45.0125 105.335C45.0125 105.335 38.8353 110.678 37.2646 114.36C35.694 118.043 27.8384 124.22 27.8384 124.22" stroke="#535461" stroke-width="2" stroke-miterlimit="10"/>
</g>
<defs>
<linearGradient id="paint0_linear" x1="135.581" y1="148.142" x2="135.581" y2="24.7063" gradientUnits="userSpaceOnUse">
<stop stop-color="#808080" stop-opacity="0.25"/>
<stop offset="0.54" stop-color="#808080" stop-opacity="0.12"/>
<stop offset="1" stop-color="#808080" stop-opacity="0.1"/>
</linearGradient>
<linearGradient id="paint1_linear" x1="42197.7" y1="110848" x2="42197.7" y2="37557.8" gradientUnits="userSpaceOnUse">
<stop stop-color="#808080" stop-opacity="0.25"/>
<stop offset="0.54" stop-color="#808080" stop-opacity="0.12"/>
<stop offset="1" stop-color="#808080" stop-opacity="0.1"/>
</linearGradient>
<clipPath id="clip0">
<rect width="262.672" height="188" fill="white"/>
</clipPath>
</defs>
</svg>
