<svg width="122" height="29" viewBox="0 0 122 29" fill="none" xmlns="http://www.w3.org/2000/svg">
<path d="M53.2874 10.132V17.2316C53.2874 19.1087 52.8125 20.5688 51.8626 21.6116C50.9127 22.6385 49.5502 23.1519 47.7749 23.1519C45.8596 23.1519 44.4815 22.4861 43.6406 21.1544C43.2046 21.8282 42.644 22.3336 41.9588 22.6706C41.2892 22.9915 40.4717 23.1519 39.5062 23.1519C37.731 23.1519 36.3685 22.6385 35.4186 21.6116C34.4842 20.5688 34.0171 19.1087 34.0171 17.2316V10.132H36.9368V16.9668C36.9368 18.1862 37.1393 19.0847 37.5441 19.6623C37.9646 20.2399 38.6264 20.5287 39.5296 20.5287C40.4328 20.5287 41.1023 20.2399 41.5384 19.6623C41.9744 19.0686 42.1924 18.1702 42.1924 16.9668V10.132H45.1121V16.9668C45.1121 18.1702 45.3301 19.0686 45.7662 19.6623C46.2022 20.2399 46.8718 20.5287 47.7749 20.5287C48.6781 20.5287 49.3321 20.2399 49.737 19.6623C50.1575 19.0847 50.3677 18.1862 50.3677 16.9668V10.132H53.2874Z" fill="#454555"/>
<path d="M62.9452 20.6009C64.3 20.6009 65.429 20.1356 66.3321 19.205L67.8738 21.0581C67.3287 21.748 66.628 22.2695 65.7715 22.6224C64.9151 22.9754 63.9496 23.1519 62.8752 23.1519C61.5048 23.1519 60.298 22.8711 59.2547 22.3096C58.2113 21.748 57.4016 20.9699 56.8254 19.9751C56.2648 18.9643 55.9846 17.8252 55.9846 16.5577C55.9846 15.3062 56.2571 14.1832 56.8021 13.1884C57.3627 12.1776 58.1257 11.3915 59.0912 10.8299C60.0722 10.2684 61.1778 9.98758 62.408 9.98758C63.5759 9.98758 64.6348 10.2523 65.5847 10.7818C66.5501 11.2952 67.3132 12.0412 67.8738 13.0199C68.4344 13.9826 68.7147 15.1137 68.7147 16.4133L59.1612 18.3386C59.4571 19.0767 59.9321 19.6382 60.5861 20.0233C61.2401 20.4083 62.0265 20.6009 62.9452 20.6009ZM62.408 12.3942C61.3335 12.3942 60.4615 12.7552 59.7919 13.4772C59.1379 14.1992 58.8109 15.1699 58.8109 16.3892V16.4133L65.865 15.0175C65.6625 14.2313 65.2499 13.5975 64.627 13.1162C64.0197 12.6349 63.28 12.3942 62.408 12.3942Z" fill="#454555"/>
<path d="M78.4338 9.98758C79.6484 9.98758 80.7306 10.2603 81.6805 10.8058C82.646 11.3513 83.4012 12.1215 83.9463 13.1162C84.4913 14.111 84.7638 15.2581 84.7638 16.5577C84.7638 17.8573 84.4913 19.0125 83.9463 20.0233C83.4012 21.018 82.646 21.7881 81.6805 22.3336C80.7306 22.8791 79.6484 23.1519 78.4338 23.1519C76.752 23.1519 75.4206 22.5743 74.4396 21.4191V27.6523H71.5198V10.132H74.2994V11.8166C74.7821 11.2069 75.3739 10.7497 76.0746 10.4448C76.7909 10.14 77.5773 9.98758 78.4338 9.98758ZM78.1068 20.5768C79.1812 20.5768 80.061 20.2078 80.7462 19.4697C81.4469 18.7317 81.7973 17.761 81.7973 16.5577C81.7973 15.3544 81.4469 14.3837 80.7462 13.6457C80.061 12.9076 79.1812 12.5386 78.1068 12.5386C77.406 12.5386 76.7754 12.7071 76.2148 13.044C75.6542 13.3649 75.2104 13.8302 74.8834 14.4399C74.5563 15.0495 74.3928 15.7555 74.3928 16.5577C74.3928 17.3599 74.5563 18.0659 74.8834 18.6755C75.2104 19.2852 75.6542 19.7585 76.2148 20.0955C76.7754 20.4163 77.406 20.5768 78.1068 20.5768Z" fill="#454555"/>
<path d="M87.5328 10.132H90.4525V22.9834H87.5328V10.132ZM89.0044 8.01413C88.4749 8.01413 88.0311 7.84567 87.6729 7.50874C87.3148 7.15577 87.1357 6.72257 87.1357 6.20915C87.1357 5.69574 87.3148 5.27056 87.6729 4.93363C88.0311 4.58066 88.4749 4.40417 89.0044 4.40417C89.5338 4.40417 89.9776 4.57264 90.3358 4.90957C90.6939 5.23045 90.873 5.63958 90.873 6.13695C90.873 6.66641 90.6939 7.11565 90.3358 7.48467C89.9932 7.83765 89.5494 8.01413 89.0044 8.01413Z" fill="#454555"/>
<path d="M101.199 9.98758C102.413 9.98758 103.496 10.2603 104.445 10.8058C105.411 11.3513 106.166 12.1215 106.711 13.1162C107.256 14.111 107.529 15.2581 107.529 16.5577C107.529 17.8573 107.256 19.0125 106.711 20.0233C106.166 21.018 105.411 21.7881 104.445 22.3336C103.496 22.8791 102.413 23.1519 101.199 23.1519C99.5169 23.1519 98.1855 22.5743 97.2045 21.4191V27.6523H94.2847V10.132H97.0643V11.8166C97.5471 11.2069 98.1388 10.7497 98.8395 10.4448C99.5558 10.14 100.342 9.98758 101.199 9.98758ZM100.872 20.5768C101.946 20.5768 102.826 20.2078 103.511 19.4697C104.212 18.7317 104.562 17.761 104.562 16.5577C104.562 15.3544 104.212 14.3837 103.511 13.6457C102.826 12.9076 101.946 12.5386 100.872 12.5386C100.171 12.5386 99.5403 12.7071 98.9797 13.044C98.4191 13.3649 97.9753 13.8302 97.6483 14.4399C97.3213 15.0495 97.1577 15.7555 97.1577 16.5577C97.1577 17.3599 97.3213 18.0659 97.6483 18.6755C97.9753 19.2852 98.4191 19.7585 98.9797 20.0955C99.5403 20.4163 100.171 20.5768 100.872 20.5768Z" fill="#454555"/>
<path d="M116.231 20.6009C117.585 20.6009 118.714 20.1356 119.618 19.205L121.159 21.0581C120.614 21.748 119.913 22.2695 119.057 22.6224C118.201 22.9754 117.235 23.1519 116.161 23.1519C114.79 23.1519 113.583 22.8711 112.54 22.3096C111.497 21.748 110.687 20.9699 110.111 19.9751C109.55 18.9643 109.27 17.8252 109.27 16.5577C109.27 15.3062 109.542 14.1832 110.087 13.1884C110.648 12.1776 111.411 11.3915 112.377 10.8299C113.358 10.2684 114.463 9.98758 115.693 9.98758C116.861 9.98758 117.92 10.2523 118.87 10.7818C119.836 11.2952 120.599 12.0412 121.159 13.0199C121.72 13.9826 122 15.1137 122 16.4133L112.447 18.3386C112.743 19.0767 113.217 19.6382 113.871 20.0233C114.526 20.4083 115.312 20.6009 116.231 20.6009ZM115.693 12.3942C114.619 12.3942 113.747 12.7552 113.077 13.4772C112.423 14.1992 112.096 15.1699 112.096 16.3892V16.4133L119.15 15.0175C118.948 14.2313 118.535 13.5975 117.912 13.1162C117.305 12.6349 116.565 12.3942 115.693 12.3942Z" fill="#454555"/>
<path d="M0 8.33333C0 3.73096 3.62114 0 8.08804 0H20.0583C24.5252 0 28.1464 3.73096 28.1464 8.33333V20.6667C28.1464 25.269 24.5252 29 20.0583 29H8.08804C3.62114 29 0 25.269 0 20.6667V8.33333Z" fill="#577BF9"/>
<path d="M11.8804 7.6759C11.8804 6.42303 12.8662 5.40738 14.0822 5.40738C15.2982 5.40738 16.2839 6.42303 16.2839 7.6759V23.0555C16.2839 23.3624 16.0425 23.6111 15.7447 23.6111H12.4196C12.1218 23.6111 11.8804 23.3624 11.8804 23.0555V7.6759Z" fill="white"/>
<path d="M18.4767 16.7315C18.4767 15.4684 19.4705 14.4444 20.6964 14.4444C21.9223 14.4444 22.9161 15.4684 22.9161 16.7315V19.9074C22.9161 21.9529 21.3067 23.6111 19.3214 23.6111H19.0159C18.7181 23.6111 18.4767 23.3624 18.4767 23.0555V16.7315Z" fill="white"/>
<path d="M5.24823 12.1018C5.24823 10.8387 6.24203 9.81479 7.46795 9.81479C8.69387 9.81479 9.68767 10.8387 9.68767 12.1018V23.0555C9.68767 23.3624 9.44626 23.6111 9.14846 23.6111H8.84292C6.85763 23.6111 5.24823 21.9529 5.24823 19.9074V12.1018Z" fill="white"/>
</svg>
